<?xml version="1.0" encoding="UTF-8"?>
<svg id="Livello_1" data-name="Livello 1" xmlns="http://www.w3.org/2000/svg" version="1.1" viewBox="0 0 52.8 52.8">
  <defs>
    <style>
      .cls-1 {
        fill: #1f3d63;
      }

      .cls-1, .cls-2 {
        stroke-width: 0px;
      }

      .cls-2 {
        fill: #fff;
      }
    </style>
  </defs>
  <circle class="cls-1" cx="26.4" cy="26.4" r="26.4"/>
  <path class="cls-2" d="M40.4,22.7c0,2-1.6,3.6-3.6,3.6s-3.6-1.6-3.6-3.6h-9.2v2.2h1.9l3.4,10.5h15l3.4-10.5h1.9v-2.2h-9.2Z"/>
  <path class="cls-2" d="M21.7,26.6h-5.6c-.8,0-1.4-.6-1.4-1.4s.6-1.4,1.4-1.4h5.6c.8,0,1.4.6,1.4,1.4s-.6,1.4-1.4,1.4Z"/>
  <path class="cls-2" d="M23.6,31h-10.9c-.8,0-1.4-.6-1.4-1.4s.6-1.4,1.4-1.4h10.9c.8,0,1.4.6,1.4,1.4s-.6,1.4-1.4,1.4Z"/>
  <path class="cls-2" d="M24.4,35.4h-4.4c-.8,0-1.4-.6-1.4-1.4s.6-1.4,1.4-1.4h4.4c.8,0,1.4.6,1.4,1.4s-.6,1.4-1.4,1.4Z"/>
</svg>