<?xml version="1.0" encoding="UTF-8"?>
<svg id="Livello_1" data-name="Livello 1" xmlns="http://www.w3.org/2000/svg" version="1.1" viewBox="0 0 67 40.7">
  <defs>
    <style>
      .cls-1 {
        fill: #1f3d63;
        stroke-width: 0px;
      }
    </style>
  </defs>
  <path class="cls-1" d="M65.9,15.5c1.5,3.1,1.5,6.7,0,9.7l-7.7,15.5H0V0h58.1l7.7,15.5ZM6.8,29.4c1.1,1.3,2.7,2,4.7,2s3.8-.7,4.9-2c1.1-1.3,1.7-3.2,1.7-5.6s-.2-2.1-.5-2.9c-.3-.8-.8-1.6-1.4-2.2-.5-.5-1.7-1.1-3.4-1.8-.4-.1-.7-.2-.9-.3,0,0-.1,0-.3-.1-1.3-.5-1.9-1.1-1.9-1.8s.1-.9.4-1.1c.2-.3.6-.4,1.1-.4s1,.2,1.3.5c.3.3.5.8.6,1.5h4.5c-.1-2.2-.8-4-1.8-5.2-1.1-1.2-2.6-1.8-4.5-1.8s-3.5.6-4.6,1.9-1.7,3-1.7,5.2.1,2.1.4,2.9.7,1.6,1.3,2.2c.3.3.8.6,1.4,1,.6.3,1.5.7,2.6,1.2.1,0,.3.1.6.2,1.3.5,2,1.2,2,2s-.2.9-.5,1.2c-.3.3-.8.4-1.3.4s-1.2-.2-1.5-.5c-.3-.4-.6-.9-.7-1.7h-4.6c.1,2.4.8,4.2,1.9,5.6ZM20.5,30.7l.6-2.9h4.7l.6,2.9h4.7l-5.2-22.2h-4.8l-5.2,22.2h4.7ZM23.4,15.4l1.5,7.7h-3l1.5-7.7ZM40.9,30.7v-5.9h-6.4V8.5h-4.7v22.2h11.2ZM51.9,30.7v-5.4h-7.4v-3.4h6v-5.1h-6v-2.9h7.1v-5.3h-11.8v22.2h12.1ZM59.9,16.9c-1.9,0-3.4,1.5-3.4,3.4s1.5,3.4,3.4,3.4,3.4-1.5,3.4-3.4-1.5-3.4-3.4-3.4Z"/>
</svg>