<?xml version="1.0" encoding="UTF-8"?>
<svg id="Livello_1" data-name="Livello 1" xmlns="http://www.w3.org/2000/svg" version="1.1" viewBox="0 0 52.8 52.8">
  <defs>
    <style>
      .cls-1 {
        font-family: Swiss721BT-Light, 'Swis721 Lt BT';
        font-size: 7.2px;
        font-weight: 300;
      }

      .cls-1, .cls-2 {
        fill: #1f3d63;
      }

      .cls-2, .cls-3 {
        stroke-width: 0px;
      }

      .cls-3 {
        fill: #fff;
      }
    </style>
  </defs>
  <circle class="cls-2" cx="26.4" cy="26.4" r="26.4"/>
  <path class="cls-3" d="M31.1,23.2c0,2.6-2.1,4.7-4.7,4.7s-4.7-2.1-4.7-4.7h-12.1v2.9h2.5l4.5,13.7h19.5l4.5-13.7h2.5v-2.9h-12.1Z"/>
  <path class="cls-3" d="M26.7,24.5c-.3,0-.6,0-.8-.3-.6-.4-.8-1.3-.3-1.9l6.2-8.6c.4-.6,1.3-.8,1.9-.3.6.4.8,1.3.3,1.9l-6.2,8.6c-.3.4-.7.6-1.1.6Z"/>
  <rect class="cls-3" x="14.5" y="12.6" width="9.6" height="9.6" rx="4.8" ry="4.8"/>
  <text class="cls-1" transform="translate(17.5 19.7)"><tspan x="0" y="0">3</tspan></text>
</svg>