<?xml version="1.0" encoding="UTF-8"?>
<svg id="Livello_1" data-name="Livello 1" xmlns="http://www.w3.org/2000/svg" version="1.1" viewBox="0 0 52.8 52.8">
  <defs>
    <style>
      .cls-1 {
        fill: #1f3d63;
      }

      .cls-1, .cls-2 {
        stroke-width: 0px;
      }

      .cls-2 {
        fill: #fff;
      }
    </style>
  </defs>
  <circle class="cls-1" cx="26.4" cy="26.4" r="26.4"/>
  <path class="cls-2" d="M23,24.4c-.6.1-1.1.2-1.6.3-1.4.2-2.9.2-4.2-.3-2-.8-3.2-2.3-3.4-4.4-.2-1.5.6-3,2-3.7,1.7-.9,3.4-.8,5.2,0,.9.4,1.8,1,2.5,1.7.6.6,1.2,1.3,1.8,1.9,0,0,0,0,.1.1,0-1.1,0-2.1.2-3.1.2-1,.5-2,1-2.9.8-1.2,2-1.9,3.4-2.2,1.4-.2,2.7,0,3.8.8,1.2.8,1.8,2,1.8,3.4,0,2.3-1.1,3.9-3,5-.6.4-1.3.7-2,1,0,0,0,0,.1,0,1.4.5,2.8,1.1,4.2,1.6.3.1.5.3.6.6,0,0,.1.1.2.2.4.2.7.3,1.1.5.2,0,.3.2.2.4,0,.2-.3.3-.5.2-.4-.2-.7-.3-1.1-.5,0,0-.2,0-.3,0-.2,0-.5,0-.7,0-1.4-.6-2.9-1.3-4.4-1.7-1-.3-2-.5-3-.6-.4,0-.6.2-.9.4-.9.7-1.6,1.7-2.2,2.7-.7,1.2-1.3,2.5-1.8,3.9,0,.2-.2.4-.5.5-.1,0-.2.2-.2.3-.2.4-.3.7-.4,1.1,0,.3-.3.3-.5.3-.2,0-.3-.3-.2-.5.1-.4.3-.7.4-1.1,0-.1,0-.3,0-.4,0-.2,0-.4,0-.6.6-1.7,1.4-3.3,2.4-4.8,0,0,0,0,0-.2ZM26.8,19.2c0,.6,0,1.2.1,1.9,0,.2.1.3.3.2.5,0,.9-.2,1.4-.3,1.2-.3,2.3-.7,3.3-1.3,1.4-.9,2.3-2.1,2.2-3.9,0-.6-.2-1.1-.6-1.5-1-1.1-2.2-1.3-3.5-1.1-1.4.3-2.2,1.2-2.7,2.5-.4,1.1-.5,2.2-.5,3.4ZM25,22.1c0-.1,0-.2-.1-.2-.3-.4-.6-.9-.9-1.3-.9-1.1-1.9-2.1-3.1-2.8-1.2-.7-2.5-1-3.8-.6-1,.3-1.7.9-1.8,2,0,.6,0,1.1.3,1.6.9,1.9,2.5,2.5,4.4,2.4,1.1,0,2.1-.2,3.2-.6.6-.2,1.2-.4,1.8-.7ZM25.3,25.2v12.6h-11.6c-1.1,0-1.9-.9-1.9-1.9v-11.3c0-1.1.9-1.9,1.9-1.9h.1c.7,1.1,1.7,1.9,3,2.5.9.4,1.8.6,2.9.6s.9,0,1.4,0c-.6,1-1.1,2.2-1.5,3.5-.1.3,0,.6,0,.8,0,0,0,0,0,.1,0,0,0,.1,0,.2,0,.2-.1.4-.2.6,0,.1,0,.3-.1.4-.2.5,0,.8,0,1.1.1.3.4.5.7.6.1,0,.3,0,.4,0,.5,0,1-.3,1.2-.9,0-.1.1-.3.2-.4,0-.2.1-.3.2-.5.4-.2.6-.5.8-.9.5-1.3,1-2.6,1.7-3.7.2-.4.5-.8.8-1.3ZM34.4,22.7l.8.3c.5.2.8.5,1,.9.2,0,.4.2.6.3.1,0,.3.1.4.2.6.3.9.8.7,1.4-.1.6-.6.9-1.2.9s-.4,0-.6-.1c-.2,0-.3-.1-.5-.2-.2,0-.3-.1-.5-.2-.2,0-.3,0-.5,0-.3,0-.5,0-.7-.2-1.3-.6-2.8-1.2-4.3-1.7-.6-.2-1.4-.4-2.2-.5v14h11.6c1.1,0,1.9-.9,1.9-1.9v-11.3c0-1.1-.9-1.9-1.9-1.9h-4.8Z"/>
</svg>