<?xml version="1.0" encoding="UTF-8"?>
<svg id="Livello_1" data-name="Livello 1" xmlns="http://www.w3.org/2000/svg" version="1.1" viewBox="0 0 43 50.7">
  <defs>
    <style>
      .cls-1 {
        fill: #1f3d63;
        stroke-width: 0px;
      }
    </style>
  </defs>
  <path class="cls-1" d="M35.3,20.3c-.3,1.1-.5,2.1-.9,3.1-2.3,6.4-6.8,10.4-13.4,11.7-5.5,1.1-10.5-.3-14.7-3.8C2.9,28.5.8,24.8.2,20.4c-.7-5.1.5-9.7,3.7-13.7C6.7,3.2,10.3,1.1,14.6.3c5-.9,9.6.2,13.6,3.2,3.1,2.3,5.2,5.3,6.4,9,.2.7.4,1.4.5,2.2,0,.4.2.5.6.5,1.6,0,3.1,0,4.7,0,1.4,0,2.6,1.1,2.6,2.5,0,1.4-1.1,2.5-2.6,2.5-1.7,0-3.4,0-5.1,0ZM5.1,17.7c-.1,6.9,5.5,12.6,12.4,12.7,7.3,0,12.8-5.7,12.9-12.5,0-7.1-5.6-12.8-12.5-12.8-7.2,0-12.9,5.8-12.8,12.6ZM40.5,45.6c-1.4,0-2.6,1.1-2.5,2.6,0,1.4,1.2,2.5,2.5,2.5,1.4,0,2.5-1.2,2.5-2.5,0-1.4-1.1-2.5-2.5-2.5ZM40.5,27.9c1.4,0,2.5-1.1,2.6-2.5,0-1.5-1.1-2.6-2.5-2.6-1.4,0-2.5,1.1-2.5,2.5,0,1.4,1.1,2.5,2.5,2.6ZM43,40.7c0-1.5-1-2.6-2.5-2.7-1.3,0-2.5,1.1-2.6,2.4,0,1.5,1,2.6,2.5,2.6,1.4,0,2.6-1,2.6-2.4ZM43,32.9c0-1.4-1.2-2.5-2.5-2.5-1.4,0-2.5,1.2-2.5,2.5,0,1.4,1.2,2.5,2.5,2.5,1.4,0,2.5-1.2,2.5-2.5Z"/>
</svg>